<?xml version="1.0" encoding="UTF-8" standalone="no"?>
<svg
   xmlns:dc="http://purl.org/dc/elements/1.1/"
   xmlns:cc="http://creativecommons.org/ns#"
   xmlns:rdf="http://www.w3.org/1999/02/22-rdf-syntax-ns#"
   xmlns:svg="http://www.w3.org/2000/svg"
   xmlns="http://www.w3.org/2000/svg"
   id="svg8"
   version="1.1"
   viewBox="0 0 55.649906 10.214807"
   height="10.214807mm"
   width="55.649906mm">
  <defs
     id="defs2">
    <style
       id="style3756">.cls-1{fill:none;}</style>
  </defs>
  <metadata
     id="metadata5">
    <rdf:RDF>
      <cc:Work
         rdf:about="">
        <dc:format>image/svg+xml</dc:format>
        <dc:type
           rdf:resource="http://purl.org/dc/dcmitype/StillImage" />
        <dc:title></dc:title>
      </cc:Work>
    </rdf:RDF>
  </metadata>
  <g
     transform="translate(-13.898472,-19.324516)"
     id="layer1">
    <g
       transform="matrix(0.16914434,0,0,0.16914434,14.366194,20.188203)"
       id="g3839">
      <path
         d="M 25,0.78000659 V 49.219994 M 0.78000659,25 H 49.219994"
         id="_menu_icon__plus" />
    </g>
    <g
       id="g3833">
      <path
         d="m 26.541121,23.843824 h 7.342182 v 1.223697 h -7.342182 z"
         id="_menu_icon__minus" />
    </g>
    <g
       transform="matrix(0.26458333,0,0,0.26458333,43.767706,17.705664)"
       id="g3846">
      <path
         d="m 4.4391891,12.251098 c -0.391855,-0.37475 -0.878154,-1.094744 -1.457739,-0.515159 L -9.0820519,23.80043 -21.14655,11.735939 c -0.57958,-0.579585 -0.92473,-0.04857 -1.50457,0.53077 -0.57933,0.578845 -1.1728,0.988419 -0.59322,1.567015 l 12.064502,12.064491 -12.064502,12.063503 c -0.57958,0.579586 0.17771,1.056598 0.65567,1.567015 0.68587,0.732468 0.74363,0.898136 1.44311,0.53077 L -9.0810629,27.996 2.9824391,40.059503 c 0.791166,0.626923 1.231238,-0.121743 1.630449,-0.53077 0.380778,-0.390147 1.047912,-0.987429 0.468325,-1.567015 L -6.9842659,25.898215 5.0792351,13.833724 c 0.579586,-0.578596 -0.248191,-1.207875 -0.640046,-1.582626 z"
         id="_menu_icon__mult" />
    </g>
    <g
       transform="matrix(0.26458333,0,0,0.26458333,49.167268,22.088468)"
       id="g3841">
      <path
         d="m 25.427454,23.334821 a 6.0323661,6.0323661 0 1 1 6.032366,-6.032367 6.0390017,6.0390017 0 0 1 -6.032366,6.032367 z m 0,-9.651786 a 3.6194197,3.6194197 0 1 0 3.61942,3.619419 3.623401,3.623401 0 0 0 -3.61942,-3.619419 z M 2.5044534,21.628813 29.753749,-5.6204835 31.45979,-3.9144427 4.2104942,23.334853 Z M 8.5368294,6.4441964 A 6.0323661,6.0323661 0 1 1 14.569195,0.41183027 6.0390017,6.0390017 0 0 1 8.5368294,6.4441964 Z m 0,-9.6517858 A 3.6194197,3.6194197 0 1 0 12.156249,0.41183027 3.623401,3.623401 0 0 0 8.5368294,-3.2075894 Z"
         id="_menu_icon__frac" />
    </g>
    <g
       transform="matrix(0.51853608,0,0,0.51853608,59.730536,20.178898)"
       id="">
      <path
         d="m 14,6 h 1 V 1 h -5 v 1 h 3.3 L 9,6.3 9.7,7 14,2.7 Z M 2,10 H 1 v 5 H 6 V 14 H 2.7 L 7,9.7 6.3,9 2,13.3 Z"
         id="_menu_icon__resize" />
    </g>
  </g>
</svg>
